<?xml version="1.0" encoding="utf-8"?>
<!-- Generator: Adobe Illustrator 26.5.1, SVG Export Plug-In . SVG Version: 6.00 Build 0)  -->
<svg version="1.1" id="Layer_2_00000117652689385490154000000015303126868477232546_"
	 xmlns="http://www.w3.org/2000/svg" xmlns:xlink="http://www.w3.org/1999/xlink" x="0px" y="0px" viewBox="0 0 50 50"
	 style="enable-background:new 0 0 50 50;" xml:space="preserve">
<style type="text/css">
	.st0{fill:#FFFFFF;}
</style>
<g>
	<g>
		<path class="st0" d="M31.5,19.2h-13c-0.6,0-1-0.4-1-1l0,0c0-0.6,0.4-1,1-1h13c0.6,0,1,0.4,1,1l0,0C32.5,18.7,32.1,19.2,31.5,19.2z
			"/>
		<path class="st0" d="M31.5,23.2h-13c-0.6,0-1-0.4-1-1l0,0c0-0.6,0.4-1,1-1h13c0.6,0,1,0.4,1,1l0,0C32.5,22.7,32.1,23.2,31.5,23.2z
			"/>
		<path class="st0" d="M31.5,27.2h-13c-0.6,0-1-0.4-1-1l0,0c0-0.6,0.4-1,1-1h13c0.6,0,1,0.4,1,1l0,0C32.5,26.7,32.1,27.2,31.5,27.2z
			"/>
	</g>
	<path class="st0" d="M35.2,12.2H14.8c-2.1,0-3.8,1.7-3.8,3.8v12.5c0,2.1,1.7,3.8,3.8,3.8H21l2.9,5c0.5,0.9,1.9,0.9,2.4,0l2.9-5h6.2
		c2.1,0,3.8-1.7,3.8-3.8V15.9C39,13.8,37.3,12.2,35.2,12.2z M36,27.7c0,0.8-0.6,1.4-1.4,1.4h-6.4L25,34.6l-3.2-5.5h-6.4
		c-0.8,0-1.4-0.6-1.4-1.4V16.6c0-0.8,0.6-1.4,1.4-1.4h19.1c0.8,0,1.4,0.6,1.4,1.4L36,27.7L36,27.7z"/>
</g>
</svg>
