<?xml version="1.0" encoding="utf-8"?>
<!-- Generator: Adobe Illustrator 26.5.0, SVG Export Plug-In . SVG Version: 6.00 Build 0)  -->
<svg version="1.1" id="Layer_2_00000044875317739022111760000016934721198630311357_"
	 xmlns="http://www.w3.org/2000/svg" xmlns:xlink="http://www.w3.org/1999/xlink" x="0px" y="0px" viewBox="0 0 50 50"
	 style="enable-background:new 0 0 50 50;" xml:space="preserve">
<style type="text/css">
	.st0{fill:#232B3A;}
</style>
<path class="st0" d="M37.4,35.1c-1-1-2.6-1-3.5,0L25,44l-8.8-8.8c-1-1-2.6-1-3.5,0s-1,2.6,0,3.5l10.6,10.6c0,0,0,0,0,0h0
	c1,1,2.6,1,3.5,0l10.6-10.6C38.4,37.7,38.4,36.1,37.4,35.1z"/>
<circle class="st0" cx="25" cy="36.9" r="2.5"/>
<circle class="st0" cx="25" cy="29.5" r="2.5"/>
<circle class="st0" cx="25" cy="22.1" r="2.5"/>
<circle class="st0" cx="25" cy="14.7" r="2.5"/>
<circle class="st0" cx="25" cy="7.3" r="2.5"/>
<circle class="st0" cx="25" cy="-0.1" r="2.5"/>
</svg>
