<?xml version="1.0" encoding="utf-8"?>
<!-- Generator: Adobe Illustrator 27.0.1, SVG Export Plug-In . SVG Version: 6.00 Build 0)  -->
<svg version="1.1" id="Layer_2" xmlns="http://www.w3.org/2000/svg" xmlns:xlink="http://www.w3.org/1999/xlink" x="0px" y="0px"
	 viewBox="0 0 50 50" style="enable-background:new 0 0 50 50;" xml:space="preserve">
<style type="text/css">
	.st0{fill:#FFFFFF;}
	.st1{fill:#1F2B3B;}
	.st2{fill:#FFFFFF;enable-background:new    ;}
</style>
<g>
	<path class="st0" d="M-228.6,38.2l-13.9-8c-0.3-0.2-0.6-0.3-1-0.3c0,0-0.1,0-0.1,0c0,0-0.1,0-0.1,0c-0.3,0-0.7,0.1-1,0.3l-13.9,8
		c-1,0.6-1.3,1.8-0.7,2.7c0.6,1,1.8,1.3,2.7,0.7l12.9-7.5l12.9,7.5c1,0.6,2.2,0.2,2.7-0.7C-227.3,39.9-227.7,38.7-228.6,38.2z"/>
	<path class="st0" d="M-234.2,48.8h-9.8c-0.4-2.6-2.5-4.5-4.9-4.5c-2.8,0-5,2.5-5,5.5c0,3,2.2,5.5,5,5.5c2.5,0,4.5-1.9,4.9-4.5h4.6
		V54h4v-3.2h1.2c0.6,0,1-0.4,1-1v0C-233.2,49.3-233.6,48.8-234.2,48.8z M-248.9,53.3c-1.7,0-3-1.6-3-3.5c0-1.9,1.3-3.5,3-3.5
		s3,1.6,3,3.5C-245.9,51.7-247.3,53.3-248.9,53.3z"/>
</g>
<g>
	<path class="st0" d="M-231.8,17h-16.5c-2.1,0-3.8-1.7-3.8-3.8V-7.2c0-2.1,1.7-3.8,3.8-3.8h16.5c2.1,0,3.8,1.7,3.8,3.8v20.5
		C-228.1,15.3-229.7,17-231.8,17z"/>
	<path class="st1" d="M-232.5,14h-15.1c-0.8,0-1.4-0.6-1.4-1.4V-6.5c0-0.8,0.6-1.4,1.4-1.4h15.1c0.8,0,1.4,0.6,1.4,1.4v19.1
		C-231.1,13.4-231.7,14-232.5,14z"/>
	<path class="st0" d="M-226.3,11h-16.5c-2.1,0-3.8-1.7-3.8-3.8v-20.5c0-2.1,1.7-3.8,3.8-3.8h16.5c2.1,0,3.8,1.7,3.8,3.8V7.2
		C-222.5,9.3-224.2,11-226.3,11z"/>
	<path class="st1" d="M-227,8h-15.1c-0.8,0-1.4-0.6-1.4-1.4v-19.1c0-0.8,0.6-1.4,1.4-1.4h15.1c0.8,0,1.4,0.6,1.4,1.4V6.5
		C-225.5,7.3-226.2,8-227,8z"/>
	<g>
		<path class="st0" d="M-229.5-8h-6c-0.6,0-1-0.4-1-1v0c0-0.6,0.4-1,1-1h6c0.6,0,1,0.4,1,1v0C-228.5-8.5-229-8-229.5-8z"/>
		<path class="st0" d="M-239.5-8L-239.5-8c-0.6,0-1-0.4-1-1v0c0-0.6,0.4-1,1-1l0,0c0.6,0,1,0.4,1,1v0C-238.5-8.5-239-8-239.5-8z"/>
		<path class="st0" d="M-229.5-4h-6c-0.6,0-1-0.4-1-1v0c0-0.6,0.4-1,1-1h6c0.6,0,1,0.4,1,1v0C-228.5-4.5-229-4-229.5-4z"/>
		<path class="st0" d="M-239.5-4L-239.5-4c-0.6,0-1-0.4-1-1v0c0-0.6,0.4-1,1-1l0,0c0.6,0,1,0.4,1,1v0C-238.5-4.5-239-4-239.5-4z"/>
		<path class="st0" d="M-229.5,0h-6c-0.6,0-1-0.4-1-1v0c0-0.6,0.4-1,1-1h6c0.6,0,1,0.4,1,1v0C-228.5-0.5-229,0-229.5,0z"/>
		<path class="st0" d="M-239.5,0L-239.5,0c-0.6,0-1-0.4-1-1v0c0-0.6,0.4-1,1-1l0,0c0.6,0,1,0.4,1,1v0C-238.5-0.5-239,0-239.5,0z"/>
		<path class="st0" d="M-229.5,4h-6c-0.6,0-1-0.4-1-1v0c0-0.6,0.4-1,1-1h6c0.6,0,1,0.4,1,1v0C-228.5,3.5-229,4-229.5,4z"/>
		<path class="st0" d="M-239.5,4L-239.5,4c-0.6,0-1-0.4-1-1v0c0-0.6,0.4-1,1-1l0,0c0.6,0,1,0.4,1,1v0C-238.5,3.5-239,4-239.5,4z"/>
	</g>
</g>
<g>
	<path class="st0" d="M-312.8,26.3v4.8c0,1.6-1.3,2.8-2.8,2.8h-5.1c-1.6,0-2.8-1.3-2.8-2.8v-4.8c0-1.6,1.3-2.8,2.8-2.8h5.1
		C-314.1,23.5-312.8,24.7-312.8,26.3z"/>
	<path class="st0" d="M-295.6,31.7v16.5c0,2.1-1.7,3.8-3.8,3.8h-20.5c-2.1,0-3.8-1.7-3.8-3.8V31.7c0-2.1,1.7-3.8,3.8-3.8h20.5
		C-297.3,27.9-295.6,29.6-295.6,31.7z"/>
	<path class="st1" d="M-298.6,32.4v15.1c0,0.8-0.6,1.4-1.4,1.4h-19.1c-0.8,0-1.4-0.6-1.4-1.4V32.4c0-0.8,0.6-1.4,1.4-1.4h19.1
		C-299.2,30.9-298.6,31.6-298.6,32.4z"/>
	<g>
		<path class="st0" d="M-297.5,35h-18c-0.6,0-1-0.4-1-1l0,0c0-0.6,0.4-1,1-1h18c0.6,0,1,0.4,1,1l0,0C-296.5,34.5-296.9,35-297.5,35z
			"/>
	</g>
	<path class="st0" d="M-296.3,37.6h-5.2c-2.2,0-4,1.8-4,4c0,2.2,1.8,4,4,4h5.1c1.6,0,2.8-1.3,2.8-2.8v-2.3
		C-293.4,38.9-294.7,37.6-296.3,37.6z M-301.4,43.6c-1.1,0-2-0.9-2-2s0.9-2,2-2s2,0.9,2,2S-300.3,43.6-301.4,43.6z"/>
</g>
<g>
	<path class="st0" d="M-366,42.6c-5.5,0-10,4.5-10,10c0,5.5,4.5,10,10,10c5.5,0,10-4.5,10-10C-356,47.1-360.5,42.6-366,42.6z
		 M-364.8,58.5c-3.3,0.6-6.4-1.5-7-4.7c-0.6-3.3,1.5-6.4,4.7-7c3.3-0.6,6.4,1.5,7,4.7C-359.5,54.7-361.6,57.8-364.8,58.5z"/>
	<path class="st0" d="M-360,77.8h-11.8c-2.3,0-4.2-1.9-4.2-4.2v-8.9c0-3.4,2.7-6.1,6.1-6.1h7.7c3.4,0,6.1,2.7,6.1,6.1v9
		C-356,76-357.8,77.8-360,77.8z"/>
</g>
<g>
	<path class="st0" d="M-320.4-26.2l-14.5,14.5l7.1,7.1l14.5-14.5c1.4-1.4,1.4-3.6,0-5l-2-2C-316.8-27.6-319-27.6-320.4-26.2z"/>
	<polygon class="st0" points="-339.5,0 -328.5,-4 -335.6,-11 	"/>
</g>
<path id="Polygon_4" class="st2" d="M-257.9-110.6l-10,5v-10L-257.9-110.6z"/>
<path class="st0" d="M-132.3-23.2l-10.6,10.6c-1,1-1,2.6,0,3.5l10.6,10.6c1,1,2.6,1,3.5,0s1-2.6,0-3.5l-8.8-8.8l8.8-8.8
	c1-1,1-2.6,0-3.5C-129.7-24.1-131.3-24.1-132.3-23.2z"/>
<g>
	<path class="st1" d="M33.8,15.2l-7.1-7.1c0,0,0,0,0,0h0c-1-1-2.6-1-3.5,0l-7.1,7.1c-1,1-1,2.6,0,3.5c1,1,2.6,1,3.5,0l2.8-2.8v8.8
		c0,1.4,1.1,2.5,2.5,2.5s2.5-1.1,2.5-2.5v-8.8l2.8,2.8c1,1,2.6,1,3.5,0C34.8,17.7,34.8,16.1,33.8,15.2z"/>
	<path class="st1" d="M37.5,22.6h-5c-1.4,0-2.5,1.1-2.5,2.5v0c0,1.4,1.1,2.5,2.5,2.5H35v10H15v-10h2.5c1.4,0,2.5-1.1,2.5-2.5v0
		c0-1.4-1.1-2.5-2.5-2.5h-5c-1.4,0-2.5,1.1-2.5,2.5v0v15c0,1.4,1.1,2.5,2.5,2.5h25c1.4,0,2.5-1.1,2.5-2.5v-15v0
		C40,23.7,38.9,22.6,37.5,22.6z"/>
	<g>
		<path class="st1" d="M19.6,33.7c0,0.2,0,0.5-0.1,0.7s-0.2,0.4-0.3,0.5s-0.3,0.2-0.5,0.3s-0.5,0.1-0.8,0.1c-0.2,0-0.4,0-0.6-0.1
			s-0.4-0.1-0.5-0.2v-0.9c0.1,0.1,0.1,0.1,0.2,0.2s0.2,0.1,0.3,0.1s0.2,0.1,0.3,0.1s0.2,0,0.3,0c0.1,0,0.2,0,0.3,0s0.2-0.1,0.2-0.2
			s0.1-0.2,0.2-0.3s0.1-0.3,0.1-0.4v-2.7h-1.8v-0.8h2.8V33.7z"/>
		<path class="st1" d="M24.4,33.6c0,0.3-0.1,0.5-0.2,0.7s-0.2,0.4-0.4,0.5s-0.4,0.2-0.7,0.3s-0.5,0.1-0.8,0.1c-0.3,0-0.5,0-0.8,0
			s-0.5-0.1-0.7-0.2v-0.9c0.1,0,0.2,0.1,0.4,0.1s0.3,0.1,0.4,0.1s0.3,0,0.4,0.1s0.3,0,0.4,0c0.2,0,0.3,0,0.5,0s0.2-0.1,0.3-0.1
			s0.1-0.1,0.2-0.2s0.1-0.2,0.1-0.2c0-0.1,0-0.2-0.1-0.3s-0.2-0.2-0.3-0.2s-0.3-0.1-0.4-0.2s-0.3-0.1-0.5-0.2s-0.3-0.1-0.5-0.2
			s-0.3-0.2-0.4-0.3S21,32.2,21,32c-0.1-0.2-0.1-0.3-0.1-0.6c0-0.2,0-0.4,0.1-0.6s0.2-0.3,0.3-0.5s0.4-0.2,0.6-0.3s0.5-0.1,0.9-0.1
			c0.1,0,0.2,0,0.3,0s0.2,0,0.3,0s0.2,0,0.3,0.1s0.2,0,0.3,0.1V31c-0.1,0-0.2-0.1-0.3-0.1s-0.2,0-0.3-0.1s-0.2,0-0.3,0s-0.2,0-0.3,0
			c-0.2,0-0.3,0-0.4,0s-0.2,0.1-0.3,0.1S22,31.1,22,31.1s-0.1,0.1-0.1,0.2c0,0.1,0,0.2,0.1,0.3s0.2,0.1,0.3,0.2s0.3,0.1,0.4,0.2
			c0.1,0.1,0.3,0.1,0.5,0.2s0.3,0.1,0.5,0.2s0.3,0.2,0.4,0.3s0.2,0.2,0.3,0.4S24.4,33.4,24.4,33.6z"/>
		<path class="st1" d="M29.1,32.6c0,0.5-0.1,0.9-0.2,1.2s-0.3,0.6-0.4,0.8s-0.4,0.4-0.7,0.5s-0.5,0.2-0.8,0.2
			c-0.7,0-1.2-0.2-1.5-0.7S25,33.5,25,32.7c0-0.5,0.1-0.9,0.2-1.2s0.3-0.6,0.4-0.8s0.4-0.4,0.7-0.5s0.5-0.2,0.8-0.2
			c0.7,0,1.2,0.2,1.5,0.7S29.1,31.8,29.1,32.6z M28.1,32.7c0-0.6-0.1-1.1-0.2-1.4s-0.4-0.4-0.8-0.4c-0.2,0-0.3,0-0.5,0.1
			s-0.2,0.2-0.3,0.3s-0.1,0.3-0.2,0.5c0,0.2-0.1,0.5-0.1,0.7c0,0.6,0.1,1.1,0.2,1.4s0.4,0.4,0.8,0.4c0.2,0,0.3,0,0.5-0.1
			s0.2-0.2,0.3-0.3s0.1-0.3,0.2-0.5S28.1,32.9,28.1,32.7z"/>
		<path class="st1" d="M32.1,35.2l-1.4-3l-0.3-0.7v2.1v1.6h-0.9v-5.1h1.2l1.4,3.1l0.2,0.6v-2.3v-1.4h0.9v5.1H32.1z"/>
	</g>
</g>
</svg>
