<?xml version="1.0" encoding="utf-8"?>
<!-- Generator: Adobe Illustrator 26.5.0, SVG Export Plug-In . SVG Version: 6.00 Build 0)  -->
<svg version="1.1" id="Layer_2_00000044875317739022111760000016934721198630311357_"
	 xmlns="http://www.w3.org/2000/svg" xmlns:xlink="http://www.w3.org/1999/xlink" x="0px" y="0px" viewBox="0 0 50 50"
	 style="enable-background:new 0 0 50 50;" xml:space="preserve">
<style type="text/css">
	.st0{fill:#FFFFFF;}
</style>
<g>
	<path class="st0" d="M25,7c-4.4,0-8,3.6-8,8s3.6,8,8,8s8-3.6,8-8S29.4,7,25,7z M25,20c-2.8,0-5-2.2-5-5s2.2-5,5-5s5,2.2,5,5
		S27.8,20,25,20z"/>
	<path class="st0" d="M30.7,37.1H19.3c-0.2,0-0.3-0.1-0.3-0.3V24.4c0-1.8,1.5-3.3,3.3-3.3h5.5c1.8,0,3.3,1.5,3.3,3.3v12.4
		C31,37,30.9,37.1,30.7,37.1z"/>
	<path class="st0" d="M21,43L21,43c-1.1,0-2-0.9-2-2v-6h4v6C23,42.1,22.1,43,21,43z"/>
	<path class="st0" d="M29,43L29,43c-1.1,0-2-0.9-2-2v-6h4v6C31,42.1,30.1,43,29,43z"/>
	<g>
		<path class="st0" d="M18.5,35.7L18.5,35.7c-2.2,0-4-1.8-4-4v-4c0-2.2,1.8-4,4-4l0,0V35.7z"/>
		<path class="st0" d="M31.5,35.7L31.5,35.7c2.2,0,4-1.8,4-4v-4c0-2.2-1.8-4-4-4l0,0V35.7z"/>
	</g>
</g>
</svg>
