<?xml version="1.0" encoding="utf-8"?>
<!-- Generator: Adobe Illustrator 26.5.0, SVG Export Plug-In . SVG Version: 6.00 Build 0)  -->
<svg version="1.1" id="Layer_2" xmlns="http://www.w3.org/2000/svg" xmlns:xlink="http://www.w3.org/1999/xlink" x="0px" y="0px"
	 viewBox="0 0 50 50" style="enable-background:new 0 0 50 50;" xml:space="preserve">
<style type="text/css">
	.st0{fill:#FFFFFF;}
	.st1{fill:#1F2B3B;}
</style>
<g>
	<path class="st0" d="M30.5,42H14c-2.1,0-3.8-1.7-3.8-3.8V17.8c0-2.1,1.7-3.8,3.8-3.8h16.5c2.1,0,3.8,1.7,3.8,3.8v20.5
		C34.2,40.3,32.6,42,30.5,42z"/>
	<path class="st1" d="M29.8,39H14.7c-0.8,0-1.4-0.6-1.4-1.4V18.5c0-0.8,0.6-1.4,1.4-1.4h15.1c0.8,0,1.4,0.6,1.4,1.4v19.1
		C31.2,38.4,30.6,39,29.8,39z"/>
	<path class="st0" d="M36,36H19.5c-2.1,0-3.8-1.7-3.8-3.8V11.7c0-2.1,1.7-3.8,3.8-3.8H36c2.1,0,3.8,1.7,3.8,3.8v20.5
		C39.8,34.3,38.1,36,36,36z"/>
	<path class="st1" d="M35.3,33H20.2c-0.8,0-1.4-0.6-1.4-1.4V12.4c0-0.8,0.6-1.4,1.4-1.4h15.1c0.8,0,1.4,0.6,1.4,1.4v19.1
		C36.8,32.3,36.1,33,35.3,33z"/>
	<g>
		<path class="st0" d="M32.8,17h-6c-0.6,0-1-0.4-1-1v0c0-0.6,0.4-1,1-1h6c0.6,0,1,0.4,1,1v0C33.8,16.5,33.3,17,32.8,17z"/>
		<path class="st0" d="M22.8,17L22.8,17c-0.6,0-1-0.4-1-1v0c0-0.6,0.4-1,1-1h0c0.6,0,1,0.4,1,1v0C23.8,16.5,23.3,17,22.8,17z"/>
		<path class="st0" d="M32.8,21h-6c-0.6,0-1-0.4-1-1v0c0-0.6,0.4-1,1-1h6c0.6,0,1,0.4,1,1v0C33.8,20.5,33.3,21,32.8,21z"/>
		<path class="st0" d="M22.8,21L22.8,21c-0.6,0-1-0.4-1-1v0c0-0.6,0.4-1,1-1h0c0.6,0,1,0.4,1,1v0C23.8,20.5,23.3,21,22.8,21z"/>
		<path class="st0" d="M32.8,25h-6c-0.6,0-1-0.4-1-1v0c0-0.6,0.4-1,1-1h6c0.6,0,1,0.4,1,1v0C33.8,24.5,33.3,25,32.8,25z"/>
		<path class="st0" d="M22.8,25L22.8,25c-0.6,0-1-0.4-1-1v0c0-0.6,0.4-1,1-1h0c0.6,0,1,0.4,1,1v0C23.8,24.5,23.3,25,22.8,25z"/>
		<path class="st0" d="M32.8,29h-6c-0.6,0-1-0.4-1-1v0c0-0.6,0.4-1,1-1h6c0.6,0,1,0.4,1,1v0C33.8,28.5,33.3,29,32.8,29z"/>
		<path class="st0" d="M22.8,29L22.8,29c-0.6,0-1-0.4-1-1v0c0-0.6,0.4-1,1-1h0c0.6,0,1,0.4,1,1v0C23.8,28.5,23.3,29,22.8,29z"/>
	</g>
</g>
</svg>
