<?xml version="1.0" encoding="utf-8"?>
<!-- Generator: Adobe Illustrator 26.5.0, SVG Export Plug-In . SVG Version: 6.00 Build 0)  -->
<svg version="1.1" id="Layer_2" xmlns="http://www.w3.org/2000/svg" xmlns:xlink="http://www.w3.org/1999/xlink" x="0px" y="0px"
	 viewBox="0 0 50 50" style="enable-background:new 0 0 50 50;" xml:space="preserve">
<style type="text/css">
	.st0{fill:#FFFFFF;}
</style>
<g>
	<path class="st0" d="M39.9,20.6l-13.9-8c-0.3-0.2-0.6-0.3-1-0.3c0,0-0.1,0-0.1,0c0,0-0.1,0-0.1,0c-0.3,0-0.7,0.1-1,0.3l-13.9,8
		c-1,0.6-1.3,1.8-0.7,2.7c0.6,1,1.8,1.3,2.7,0.7L25,16.6L37.9,24c1,0.6,2.2,0.2,2.7-0.7C41.2,22.3,40.9,21.1,39.9,20.6z"/>
	<path class="st0" d="M34.4,31.2h-9.8c-0.4-2.6-2.5-4.5-4.9-4.5c-2.8,0-5,2.5-5,5.5c0,3,2.2,5.5,5,5.5c2.5,0,4.5-1.9,4.9-4.5h4.6
		v3.2h4v-3.2h1.2c0.6,0,1-0.4,1-1v0C35.4,31.7,34.9,31.2,34.4,31.2z M19.6,35.7c-1.7,0-3-1.6-3-3.5c0-1.9,1.3-3.5,3-3.5s3,1.6,3,3.5
		C22.6,34.1,21.3,35.7,19.6,35.7z"/>
</g>
</svg>
