<?xml version="1.0" encoding="utf-8"?>
<!-- Generator: Adobe Illustrator 26.5.0, SVG Export Plug-In . SVG Version: 6.00 Build 0)  -->
<svg version="1.1" id="Layer_2" xmlns="http://www.w3.org/2000/svg" xmlns:xlink="http://www.w3.org/1999/xlink" x="0px" y="0px"
	 viewBox="0 0 50 50" style="enable-background:new 0 0 50 50;" xml:space="preserve">
<style type="text/css">
	.st0{fill:#FFFFFF;}
</style>
<g>
	<path class="st0" d="M25,7.4c-5.5,0-10,4.5-10,10c0,5.5,4.5,10,10,10c5.5,0,10-4.5,10-10C35,11.9,30.5,7.4,25,7.4z M26.2,23.3
		c-3.3,0.6-6.4-1.5-7-4.7c-0.6-3.3,1.5-6.4,4.7-7c3.3-0.6,6.4,1.5,7,4.7C31.5,19.5,29.4,22.6,26.2,23.3z"/>
	<path class="st0" d="M31,42.6H19.2c-2.3,0-4.2-1.9-4.2-4.2v-8.9c0-3.4,2.7-6.1,6.1-6.1h7.7c3.4,0,6.1,2.7,6.1,6.1v9
		C35,40.8,33.2,42.6,31,42.6z"/>
</g>
</svg>
