<?xml version="1.0" encoding="utf-8"?>
<!-- Generator: Adobe Illustrator 26.5.0, SVG Export Plug-In . SVG Version: 6.00 Build 0)  -->
<svg version="1.1" id="Layer_2" xmlns="http://www.w3.org/2000/svg" xmlns:xlink="http://www.w3.org/1999/xlink" x="0px" y="0px"
	 viewBox="0 0 50 50" style="enable-background:new 0 0 50 50;" xml:space="preserve">
<style type="text/css">
	.st0{fill:#FFFFFF;}
	.st1{fill:#1F2B3B;}
</style>
<g>
	<path class="st0" d="M20.7,13.6v4.8c0,1.6-1.3,2.8-2.8,2.8h-5.1c-1.6,0-2.8-1.3-2.8-2.8v-4.8c0-1.6,1.3-2.8,2.8-2.8h5.1
		C19.4,10.8,20.7,12,20.7,13.6z"/>
	<path class="st0" d="M37.9,19v16.5c0,2.1-1.7,3.8-3.8,3.8H13.7c-2.1,0-3.8-1.7-3.8-3.8V19c0-2.1,1.7-3.8,3.8-3.8h20.5
		C36.2,15.2,37.9,16.9,37.9,19z"/>
	<path class="st1" d="M34.9,19.7v15.1c0,0.8-0.6,1.4-1.4,1.4H14.4c-0.8,0-1.4-0.6-1.4-1.4V19.7c0-0.8,0.6-1.4,1.4-1.4h19.1
		C34.3,18.2,34.9,18.9,34.9,19.7z"/>
	<g>
		<path class="st0" d="M36,22.2H18c-0.6,0-1-0.4-1-1v0c0-0.6,0.4-1,1-1h18c0.6,0,1,0.4,1,1v0C37,21.8,36.6,22.2,36,22.2z"/>
	</g>
	<path class="st0" d="M37.2,24.9H32c-2.2,0-4,1.8-4,4c0,2.2,1.8,4,4,4h5.1c1.6,0,2.8-1.3,2.8-2.8v-2.3
		C40.1,26.2,38.8,24.9,37.2,24.9z M32.1,30.9c-1.1,0-2-0.9-2-2s0.9-2,2-2c1.1,0,2,0.9,2,2S33.2,30.9,32.1,30.9z"/>
</g>
</svg>
